<?xml version="1.0" encoding="UTF-8" standalone="no"?>
<svg
   xmlns:dc="http://purl.org/dc/elements/1.1/"
   xmlns:cc="http://creativecommons.org/ns#"
   xmlns:rdf="http://www.w3.org/1999/02/22-rdf-syntax-ns#"
   xmlns:svg="http://www.w3.org/2000/svg"
   xmlns="http://www.w3.org/2000/svg"
   version="1.1"
   id="svg2"
   viewBox="0 0 167.06713 123.63"
   height="34.891132mm"
   width="47.150055mm">
  <defs
     id="defs4" />
  <metadata
     id="metadata7">
    <rdf:RDF>
      <cc:Work
         rdf:about="">
        <dc:format>image/svg+xml</dc:format>
        <dc:type
           rdf:resource="http://purl.org/dc/dcmitype/StillImage" />
        <dc:title></dc:title>
      </cc:Work>
    </rdf:RDF>
  </metadata>
  <g
     transform="translate(-98.194471,-355.11609)"
     id="layer1">
    <g
       transform="matrix(0.125,0,0,-0.125,97.15785,710.76359)"
       id="g3346">
      <path
         id="path3348"
         style="fill:#ff870d;fill-opacity:1;fill-rule:evenodd;stroke:none"
         d="m 354.07,2158.82 c -42.593,0 -77.129,34.53 -77.129,77.13 0,23.68 10.684,44.88 27.497,59.03 l -116.192,269.45 c -33.238,-43.34 -52.984,-97.57 -52.984,-156.41 0,-24.03 3.293,-47.3 9.457,-69.36 C 64.3828,2303.29 8.29297,2222.99 8.29297,2129.58 c 0,-126.1 102.22303,-228.33 228.32003,-228.33 79.684,0 149.828,40.82 190.676,102.68 48.234,-88.07 141.777,-147.79 249.27,-147.79 27.484,0 54.058,3.91 79.191,11.19 l -343.785,797.26 c -6.414,0.48 -12.887,0.72 -19.418,0.72 -60.488,0 -116.102,-20.88 -160.031,-55.81 l 127.937,-296.69 c 39.61,-3.25 70.742,-36.42 70.742,-76.86 0,-42.6 -34.535,-77.13 -77.125,-77.13" />
      <path
         id="path3350"
         style="fill:#0a8fd1;fill-opacity:1;fill-rule:evenodd;stroke:none"
         d="m 447.715,2729.41 362.242,-840.05 c 48.898,26.06 89.277,66 115.875,114.57 40.848,-61.86 110.998,-102.68 190.668,-102.68 9.3,0 18.45,0.57 27.45,1.65 l -93.04,215.76 25.46,11.24 27.89,12.76 97.08,-225.12 c 84.09,33.67 143.49,115.92 143.49,212.04 0,93.41 -56.09,173.71 -136.43,209.08 6.17,22.06 9.46,45.33 9.46,69.36 0,142.1 -115.19,257.29 -257.282,257.29 -6.535,0 -13.004,-0.24 -19.414,-0.72 -41.351,105.71 -144.234,180.59 -264.605,180.59 -93.887,0 -177.137,-45.55 -228.844,-115.77 z m 619.515,-578.83 7.37,3.37 15.7,7.18 40.65,18.59 c -54.67,119.51 -73.96,177.85 -142.341,209.93 -3.382,1.58 -6.882,3.11 -10.507,4.57 -7.45,2.99 -15.442,5.74 -24.071,8.27 -3.843,-8.13 -7.097,-15.94 -9.801,-23.49 -1.32,-3.68 -2.503,-7.32 -3.558,-10.89 -21.422,-72.43 9.398,-125.6 62.468,-245.82 l 40.89,18.05 15.79,6.97 7.41,3.27 z m -87.128,193.89 c 17.457,7.85 37.968,0.06 45.818,-17.4 7.85,-17.46 0.05,-37.98 -17.4,-45.83 -17.465,-7.84 -37.981,-0.05 -45.829,17.41 -7.843,17.46 -0.054,37.98 17.411,45.82 z m 143.718,-82.51 c 45.73,-7.13 52.05,-54.35 66.86,-99.67 -7.47,-1.29 -15.61,1.97 -24.24,6.26 -7.68,3.83 -15.74,8.48 -24.06,11.47 -14.47,31.7 -26.45,59.03 -37.57,82.66 7.01,0.44 13.31,0.18 19.01,-0.72 z m -177.445,-79.74 c -25.035,-38.93 6.086,-75.01 30.137,-116.18 5.929,4.73 8.894,12.99 11.41,22.28 2.242,8.29 4.117,17.41 7.398,25.61 -14.101,31.87 -26.582,58.98 -36.863,82.98 -4.984,-4.95 -8.969,-9.84 -12.082,-14.69" />
    </g>
  </g>
</svg>
