<?xml version="1.0" encoding="UTF-8" standalone="no"?>
<svg
   xmlns:dc="http://purl.org/dc/elements/1.1/"
   xmlns:cc="http://creativecommons.org/ns#"
   xmlns:rdf="http://www.w3.org/1999/02/22-rdf-syntax-ns#"
   xmlns:svg="http://www.w3.org/2000/svg"
   xmlns="http://www.w3.org/2000/svg"
   xmlns:sodipodi="http://sodipodi.sourceforge.net/DTD/sodipodi-0.dtd"
   xmlns:inkscape="http://www.inkscape.org/namespaces/inkscape"
   version="1.1"
   id="svg2"
   viewBox="0 0 565.03962 123.63"
   height="34.891132mm"
   width="159.46674mm"
   inkscape:version="0.91 r13725"
   sodipodi:docname="starting-dreams-light.svg">
  <sodipodi:namedview
     pagecolor="#ffffff"
     bordercolor="#666666"
     borderopacity="1"
     objecttolerance="10"
     gridtolerance="10"
     guidetolerance="10"
     inkscape:pageopacity="0"
     inkscape:pageshadow="2"
     inkscape:window-width="1920"
     inkscape:window-height="1016"
     id="namedview11"
     showgrid="false"
     inkscape:zoom="1.5317487"
     inkscape:cx="462.84954"
     inkscape:cy="31.627047"
     inkscape:window-x="1920"
     inkscape:window-y="41"
     inkscape:window-maximized="1"
     inkscape:current-layer="layer1" />
  <defs
     id="defs4" />
  <metadata
     id="metadata7">
    <rdf:RDF>
      <cc:Work
         rdf:about="">
        <dc:format>image/svg+xml</dc:format>
        <dc:type
           rdf:resource="http://purl.org/dc/dcmitype/StillImage" />
        <dc:title></dc:title>
      </cc:Work>
    </rdf:RDF>
  </metadata>
  <g
     transform="translate(-98.194471,-355.11609)"
     id="layer1">
    <path
       inkscape:connector-curvature="0"
       d="m 141.4166,440.91109 c -5.32413,0 -9.64113,-4.31625 -9.64113,-9.64125 0,-2.96 1.3355,-5.61 3.43713,-7.37875 l -14.524,-33.68125 c -4.15475,5.4175 -6.623,12.19625 -6.623,19.55125 0,3.00375 0.41162,5.9125 1.18212,8.67 -10.04202,4.42125 -17.053249,14.45875 -17.053249,26.135 0,15.7625 12.777879,28.54125 28.540009,28.54125 9.96049,0 18.72849,-5.1025 23.83449,-12.835 6.02925,11.00875 17.72213,18.47375 31.15875,18.47375 3.4355,0 6.75725,-0.48875 9.89888,-1.39875 l -42.97313,-99.6575 c -0.80175,-0.06 -1.61087,-0.09 -2.42725,-0.09 -7.561,0 -14.51275,2.61 -20.00387,6.97625 l 15.99212,37.08625 c 4.95125,0.40625 8.84275,4.5525 8.84275,9.6075 0,5.325 -4.31687,9.64125 -9.64062,9.64125"
       style="fill:#ff870d;fill-opacity:1;fill-rule:evenodd;stroke:none"
       id="path3348" />
    <path
       inkscape:connector-curvature="0"
       d="m 153.12222,369.58734 45.28025,105.00625 c 6.11225,-3.2575 11.15963,-8.25 14.48438,-14.32125 5.106,7.7325 13.87475,12.835 23.8335,12.835 1.1625,0 2.30625,-0.0713 3.43125,-0.20625 l -11.63,-26.97 3.1825,-1.405 3.48625,-1.595 12.135,28.14 c 10.51125,-4.20875 17.93625,-14.49 17.93625,-26.505 0,-11.67625 -7.01125,-21.71375 -17.05375,-26.135 0.77125,-2.7575 1.1825,-5.66625 1.1825,-8.67 0,-17.7625 -14.39875,-32.16125 -32.16025,-32.16125 -0.81688,0 -1.6255,0.03 -2.42675,0.09 -5.16888,-13.21375 -18.02925,-22.57375 -33.07562,-22.57375 -11.73588,0 -22.14213,5.69375 -28.6055,14.47125 z m 77.43938,72.35375 0.92125,-0.42125 1.9625,-0.8975 5.08125,-2.32375 c -6.83375,-14.93875 -9.245,-22.23125 -17.79263,-26.24125 -0.42275,-0.1975 -0.86025,-0.38875 -1.31337,-0.57125 -0.93125,-0.37375 -1.93025,-0.7175 -3.00888,-1.03375 -0.48037,1.01625 -0.88712,1.9925 -1.22512,2.93625 -0.165,0.46 -0.31288,0.915 -0.44475,1.36125 -2.67775,9.05375 1.17475,15.7 7.8085,30.7275 l 5.11125,-2.25625 1.97375,-0.87125 0.92625,-0.40875 z m -10.891,-24.23625 c 2.18212,-0.98125 4.746,-0.007 5.72725,2.175 0.98125,2.1825 0.006,4.7475 -2.175,5.72875 -2.18313,0.98 -4.74762,0.006 -5.72862,-2.17625 -0.98038,-2.1825 -0.007,-4.7475 2.17637,-5.7275 z m 17.96475,10.31375 c 5.71625,0.89125 6.50625,6.79375 8.3575,12.45875 -0.93375,0.16125 -1.95125,-0.24625 -3.03,-0.7825 -0.96,-0.47875 -1.9675,-1.06 -3.0075,-1.43375 -1.80875,-3.9625 -3.30625,-7.37875 -4.69625,-10.3325 0.87625,-0.055 1.66375,-0.0225 2.37625,0.09 z m -22.18063,9.9675 c -3.12937,4.86625 0.76075,9.37625 3.76713,14.5225 0.74112,-0.59125 1.11175,-1.62375 1.42625,-2.785 0.28025,-1.03625 0.51462,-2.17625 0.92475,-3.20125 -1.76263,-3.98375 -3.32275,-7.3725 -4.60788,-10.3725 -0.623,0.61875 -1.12112,1.23 -1.51025,1.83625"
       style="fill:#0a8fd1;fill-opacity:1;fill-rule:evenodd;stroke:none"
       id="path3350" />
    <path
       inkscape:connector-curvature="0"
       d="m 396.8391,372.10234 c -2.195,-0.74875 -5.53875,-1.28875 -8.70125,-1.28875 -8.11375,0 -12.6875,2.62125 -13.545,9.445 -0.675,5.36625 2.07,7.36375 8.39875,7.98875 5.5125,0.49875 6.38,1.8725 6.10875,4.03625 -0.3775,2.995 -2.56125,3.8275 -7.18125,3.8275 -2.82875,0 -5.85,-0.4575 -7.6075,-1.04 l -1.80375,4.74375 c 2.23,0.79 5.66375,1.28875 8.8675,1.28875 8.3625,0 12.81125,-2.2875 13.66875,-9.11125 0.69125,-5.4925 -1.99125,-7.99 -8.6425,-8.69625 -5.22125,-0.49875 -6.1775,-1.4975 -5.9,-3.70375 0.355,-2.82875 2.39,-3.78625 7.00875,-3.78625 2.9125,0 5.975,0.4575 7.525,1.04 l 1.80375,-4.74375 z m 27.03625,28.41875 3.05125,-24.2575 9.7775,0 0.59625,-4.7425 -25.09,0 -0.59625,4.7425 9.77875,0 -3.05125,24.2575 5.53375,0 z m 42.635,0 6.07625,0 c -2.2725,-7.73875 -5.015,-19.68 -6.7975,-29 l -8.61375,0 c -4.625,8.65375 -10.33875,20.34625 -14.13125,29 l 5.74125,0 c 0.94375,-2.20375 2.00125,-4.66 3.15875,-7.23875 l 12.69,0 c 0.6225,2.6625 1.30625,5.15875 1.87625,7.23875 z m -5.34375,-24.34 c 0.6525,3.74375 1.5175,8.11375 2.4775,12.39875 l -9.65375,0 c 2.0475,-4.36875 4.12625,-8.655 6.05375,-12.39875 l 1.1225,0 z m 35.39625,0 8.3225,0 c 2.03875,0 3.0625,1.45625 2.68,4.49375 -0.35625,2.82875 -1.7825,4.24375 -3.905,4.24375 l -8.19625,0 1.09875,-8.7375 z m 8.59375,11.73375 c 5.81,-0.20875 8.09125,-3.7875 8.61375,-7.94875 0.58625,-4.65875 -0.89375,-8.445 -7.01,-8.445 l -15.10375,0 -3.64625,29 5.4925,0 1.39125,-11.0675 3.86875,0 c 1.87375,0 4.185,3.12125 7.72125,11.0675 l 6.7825,0 c -4.00875,-8.4875 -6.20125,-11.89875 -8.11,-12.60625 z m 36.55625,12.60625 3.05,-24.2575 9.7775,0 0.5975,-4.7425 -25.09,0 -0.59625,4.7425 9.7775,0 -3.05,24.2575 5.53375,0 z m 29.76375,-29 -3.64625,29 5.4925,0 3.6475,-29 -5.49375,0 z m 50.20875,0 -5.45,0 -2.6325,20.9275 c -2.8975,-7.0725 -6.18875,-14.3125 -9.55875,-20.9275 l -7.19875,0 -3.6475,29 5.3675,0 2.7475,-21.84375 c 3.63125,7.19875 7.02625,14.605 10.0275,21.84375 l 6.69875,0 3.64625,-29 z m 33.72875,24.17375 c -0.89875,0.2075 -2.42375,0.41625 -3.79625,0.41625 -6.325,0 -8.5175,-1.415 -7.39875,-10.31875 1.12,-8.90375 3.62625,-9.98625 10.20125,-9.98625 1.955,0 5.6175,0.3325 7.08875,0.87375 l 1.725,-4.785 c -2.16875,-0.62375 -5.98125,-1.08125 -8.6025,-1.08125 -9.445,0 -14.78375,3.07875 -16.275,14.9375 -1.485,11.81625 2.48125,15.3525 11.67625,15.3525 3.37125,0 8.01,-0.49875 10.475,-1.2475 l 2.04625,-16.26875 -11.94125,0 -0.58125,4.61875 6.325,0 -0.9425,7.48875"
       style="fill:#f9f9f9;fill-opacity:1;fill-rule:nonzero;stroke:none"
       id="path3352" />
    <path
       inkscape:connector-curvature="0"
       d="m 298.90785,388.85484 -10.0625,80.025 30.54,0 c 25.37375,0 38.9425,-9.3 42.84125,-40.29875 3.91125,-31.115 -7.405,-39.72625 -32.77875,-39.72625 l -30.54,0 z m 47.115,39.84 c -2.84375,22.61875 -8.8025,27.095 -26.48375,27.095 l -13.8925,0 6.77,-53.84625 13.8925,0 c 17.68125,0 22.6725,3.215 19.71375,26.75125 z m 18.625,40.185 14.23625,0 5.09625,-40.52875 c 0.535,-4.24875 7.1375,-6.545 14.25625,-6.545 2.525,0 5.3525,0.345 7.36125,0.80375 l 1.70375,-13.5475 c -2.0375,-0.23 -3.975,-0.345 -5.9275,-0.345 -8.38125,0 -13.21875,2.87125 -15.69,6.085 l 0.54875,-4.3625 -14.2375,0 -7.3475,58.44 z m 83.045,-12.86 c -4.765,1.3775 -12.58875,2.41125 -16.72125,2.41125 -10.21875,0 -14.72375,-2.525 -13.265,-15.04 l 37.775,0 c 4.5975,-28.35875 -2.645,-34.67375 -21.13,-34.67375 -16.9925,0 -28.12,7.23375 -31.065,30.655 -3.01625,23.99625 7.57,31.115 24.4475,31.115 5.96875,0 14.73875,-1.26375 20.84,-3.215 l -0.88125,-11.2525 z m -13.9525,-36.05125 c 8.1525,0 10.8625,2.1825 10.02375,12.515 l -24.57,0 c 2.13125,-9.64375 5.59125,-12.515 14.54625,-12.515 z m 78.26375,11.4825 c 2.19375,-17.4525 -5.06375,-22.73375 -22.40125,-22.73375 -8.38125,0 -17.40875,1.4925 -23.69625,3.1 l 1.16875,11.71125 c 5.0375,-1.7225 11.6125,-2.87 18.0425,-2.87 12.17,0 14.26375,2.525 12.9775,12.74375 -4.80625,-1.03375 -9.3275,-1.6075 -14.26375,-1.6075 -13.6625,0 -23.295,2.64 -25.37375,19.17375 -1.92,15.27 3.745,19.51875 22.23125,19.51875 8.15125,0 19.275,-1.7225 26.98375,-4.5925 l 4.33125,-34.44375 z m -16.95375,26.17625 c -3.475,1.1475 -7.82375,1.9525 -11.9575,1.9525 -8.61,0 -10.63375,-1.26375 -9.63625,-9.185 0.9375,-7.46375 3.92375,-8.38125 11.96,-8.38125 4.2475,0 8.3375,0.34375 11.46625,1.03375 l -1.8325,14.58 z m 41.24,-34.67375 c 2.97125,-0.8025 6.8325,-1.37625 9.9325,-1.37625 9.415,0 11.30625,3.215 9.675,16.1875 l -3.91125,31.115 14.23625,0 4.09875,-32.6075 c 0.665,-5.28125 0.63875,-9.64375 0.0388,-13.08875 3.93375,-1.1475 8.69875,-1.60625 11.56875,-1.60625 9.415,0 11.3075,3.215 9.675,16.1875 l -3.91125,31.115 14.23625,0 4.09875,-32.6075 c 2.6425,-21.01125 -3.07875,-27.555 -19.49625,-27.555 -6.66,0 -14.66875,1.6075 -21.2725,3.90375 -3.1125,-2.64125 -7.89,-3.90375 -14.435,-3.90375 -9.3,0 -20.15125,2.29625 -27.615,5.0525 l -6.93,55.11 14.23625,0 5.775,-45.92625 z m 123.6875,-11.02125 c -5.61,-1.9525 -13.14375,-3.215 -19.22875,-3.215 -14.81125,0 -25.5625,4.2475 -27.46875,19.40375 -1.515,12.055 4.925,15.61375 17.65375,16.6475 10.10375,0.91875 12.155,2.87 11.635,7.00375 -0.76625,6.085 -4.57,7.11875 -12.37625,7.11875 -5.85625,0 -12.93,-1.26375 -16.99,-2.755 l -4.4,11.25125 c 5.265,1.95125 14.30625,3.1 20.505,3.1 14.92625,0 25.57875,-4.36375 27.48375,-19.51875 1.4725,-11.71 -4.17875,-16.07375 -18.11375,-17.56625 -9.4125,-0.91875 -11.76625,-2.29625 -11.26125,-6.315 0.76625,-6.085 4.41125,-6.77375 11.415,-6.77375 5.855,0 12.24125,1.26375 16.64625,2.75625 l 4.5,-11.1375"
       style="fill:#f9f9f9;fill-opacity:1;fill-rule:nonzero;stroke:none"
       id="path3354" />
  </g>
</svg>
