<?xml version="1.0" encoding="UTF-8" standalone="no"?>
<svg
   xmlns:dc="http://purl.org/dc/elements/1.1/"
   xmlns:cc="http://creativecommons.org/ns#"
   xmlns:rdf="http://www.w3.org/1999/02/22-rdf-syntax-ns#"
   xmlns:svg="http://www.w3.org/2000/svg"
   xmlns="http://www.w3.org/2000/svg"
   version="1.1"
   id="svg2"
   viewBox="0 0 565.03962 123.63"
   height="34.891132mm"
   width="159.46674mm">
  <defs
     id="defs4" />
  <metadata
     id="metadata7">
    <rdf:RDF>
      <cc:Work
         rdf:about="">
        <dc:format>image/svg+xml</dc:format>
        <dc:type
           rdf:resource="http://purl.org/dc/dcmitype/StillImage" />
        <dc:title></dc:title>
      </cc:Work>
    </rdf:RDF>
  </metadata>
  <g
     transform="translate(-98.194471,-355.11609)"
     id="layer1">
    <g
       transform="matrix(0.125,0,0,-0.125,97.15785,710.76359)"
       id="g3346">
      <path
         id="path3348"
         style="fill:#ff870d;fill-opacity:1;fill-rule:evenodd;stroke:none"
         d="m 354.07,2158.82 c -42.593,0 -77.129,34.53 -77.129,77.13 0,23.68 10.684,44.88 27.497,59.03 l -116.192,269.45 c -33.238,-43.34 -52.984,-97.57 -52.984,-156.41 0,-24.03 3.293,-47.3 9.457,-69.36 C 64.3828,2303.29 8.29297,2222.99 8.29297,2129.58 c 0,-126.1 102.22303,-228.33 228.32003,-228.33 79.684,0 149.828,40.82 190.676,102.68 48.234,-88.07 141.777,-147.79 249.27,-147.79 27.484,0 54.058,3.91 79.191,11.19 l -343.785,797.26 c -6.414,0.48 -12.887,0.72 -19.418,0.72 -60.488,0 -116.102,-20.88 -160.031,-55.81 l 127.937,-296.69 c 39.61,-3.25 70.742,-36.42 70.742,-76.86 0,-42.6 -34.535,-77.13 -77.125,-77.13" />
      <path
         id="path3350"
         style="fill:#0a8fd1;fill-opacity:1;fill-rule:evenodd;stroke:none"
         d="m 447.715,2729.41 362.242,-840.05 c 48.898,26.06 89.277,66 115.875,114.57 40.848,-61.86 110.998,-102.68 190.668,-102.68 9.3,0 18.45,0.57 27.45,1.65 l -93.04,215.76 25.46,11.24 27.89,12.76 97.08,-225.12 c 84.09,33.67 143.49,115.92 143.49,212.04 0,93.41 -56.09,173.71 -136.43,209.08 6.17,22.06 9.46,45.33 9.46,69.36 0,142.1 -115.19,257.29 -257.282,257.29 -6.535,0 -13.004,-0.24 -19.414,-0.72 -41.351,105.71 -144.234,180.59 -264.605,180.59 -93.887,0 -177.137,-45.55 -228.844,-115.77 z m 619.515,-578.83 7.37,3.37 15.7,7.18 40.65,18.59 c -54.67,119.51 -73.96,177.85 -142.341,209.93 -3.382,1.58 -6.882,3.11 -10.507,4.57 -7.45,2.99 -15.442,5.74 -24.071,8.27 -3.843,-8.13 -7.097,-15.94 -9.801,-23.49 -1.32,-3.68 -2.503,-7.32 -3.558,-10.89 -21.422,-72.43 9.398,-125.6 62.468,-245.82 l 40.89,18.05 15.79,6.97 7.41,3.27 z m -87.128,193.89 c 17.457,7.85 37.968,0.06 45.818,-17.4 7.85,-17.46 0.05,-37.98 -17.4,-45.83 -17.465,-7.84 -37.981,-0.05 -45.829,17.41 -7.843,17.46 -0.054,37.98 17.411,45.82 z m 143.718,-82.51 c 45.73,-7.13 52.05,-54.35 66.86,-99.67 -7.47,-1.29 -15.61,1.97 -24.24,6.26 -7.68,3.83 -15.74,8.48 -24.06,11.47 -14.47,31.7 -26.45,59.03 -37.57,82.66 7.01,0.44 13.31,0.18 19.01,-0.72 z m -177.445,-79.74 c -25.035,-38.93 6.086,-75.01 30.137,-116.18 5.929,4.73 8.894,12.99 11.41,22.28 2.242,8.29 4.117,17.41 7.398,25.61 -14.101,31.87 -26.582,58.98 -36.863,82.98 -4.984,-4.95 -8.969,-9.84 -12.082,-14.69" />
      <path
         id="path3352"
         style="fill:#231f20;fill-opacity:1;fill-rule:nonzero;stroke:none"
         d="m 2397.45,2709.29 c -17.56,5.99 -44.31,10.31 -69.61,10.31 -64.91,0 -101.5,-20.97 -108.36,-75.56 -5.4,-42.93 16.56,-58.91 67.19,-63.91 44.1,-3.99 51.04,-14.98 48.87,-32.29 -3.02,-23.96 -20.49,-30.62 -57.45,-30.62 -22.63,0 -46.8,3.66 -60.86,8.32 l -14.43,-37.95 c 17.84,-6.32 45.31,-10.31 70.94,-10.31 66.9,0 102.49,18.3 109.35,72.89 5.53,43.94 -15.93,63.92 -69.14,69.57 -41.77,3.99 -49.42,11.98 -47.2,29.63 2.84,22.63 19.12,30.29 56.07,30.29 23.3,0 47.8,-3.66 60.2,-8.32 l 14.43,37.95 z m 216.29,-227.35 24.41,194.06 78.22,0 4.77,37.94 -200.72,0 -4.77,-37.94 78.23,0 -24.41,-194.06 44.27,0 z m 341.08,0 48.61,0 c -18.18,61.91 -40.12,157.44 -54.38,232 l -68.91,0 c -37,-69.23 -82.71,-162.77 -113.05,-232 l 45.93,0 c 7.55,17.63 16.01,37.28 25.27,57.91 l 101.52,0 c 4.98,-21.3 10.45,-41.27 15.01,-57.91 z m -42.75,194.72 c 5.22,-29.95 12.14,-64.91 19.82,-99.19 l -77.23,0 c 16.38,34.95 33.01,69.24 48.43,99.19 l 8.98,0 z m 283.17,0 66.58,0 c 16.31,0 24.5,-11.65 21.44,-35.95 -2.85,-22.63 -14.26,-33.95 -31.24,-33.95 l -65.57,0 8.79,69.9 z m 68.75,-93.87 c 46.48,1.67 64.73,30.3 68.91,63.59 4.69,37.27 -7.15,67.56 -56.08,67.56 l -120.83,0 -29.17,-232 43.94,0 11.13,88.54 30.95,0 c 14.99,0 33.48,-24.97 61.77,-88.54 l 54.26,0 c -32.07,67.9 -49.61,95.19 -64.88,100.85 z m 292.45,-100.85 24.4,194.06 78.22,0 4.78,37.94 -200.72,0 -4.77,-37.94 78.22,0 -24.4,-194.06 44.27,0 z m 238.11,232 -29.17,-232 43.94,0 29.18,232 -43.95,0 z m 401.67,0 -43.6,0 -21.06,-167.42 c -23.18,56.58 -49.51,114.5 -76.47,167.42 l -57.59,0 -29.18,-232 42.94,0 21.98,174.75 c 29.05,-57.59 56.21,-116.84 80.22,-174.75 l 53.59,0 29.17,232 z m 269.83,-193.39 c -7.19,-1.66 -19.39,-3.33 -30.37,-3.33 -50.6,0 -68.14,11.32 -59.19,82.55 8.96,71.23 29.01,79.89 81.61,79.89 15.64,0 44.94,-2.66 56.71,-6.99 l 13.8,38.28 c -17.35,4.99 -47.85,8.65 -68.82,8.65 -75.56,0 -118.27,-24.63 -130.2,-119.5 -11.88,-94.53 19.85,-122.82 93.41,-122.82 26.97,0 64.08,3.99 83.8,9.98 l 16.37,130.15 -95.53,0 -4.65,-36.95 50.6,0 -7.54,-59.91" />
      <path
         id="path3354"
         style="fill:#231f20;fill-opacity:1;fill-rule:nonzero;stroke:none"
         d="m 1614,2575.27 -80.5,-640.2 244.32,0 c 202.99,0 311.54,74.4 342.73,322.39 31.29,248.92 -59.24,317.81 -262.23,317.81 l -244.32,0 z m 376.92,-318.72 c -22.75,-180.95 -70.42,-216.76 -211.87,-216.76 l -111.14,0 54.16,430.77 111.14,0 c 141.45,0 181.38,-25.72 157.71,-214.01 z m 149,-321.48 113.89,0 40.77,324.23 c 4.28,33.99 57.1,52.36 114.05,52.36 20.2,0 42.82,-2.76 58.89,-6.43 l 13.63,108.38 c -16.3,1.84 -31.8,2.76 -47.42,2.76 -67.05,0 -105.75,-22.97 -125.52,-48.68 l 4.39,34.9 -113.9,0 -58.78,-467.52 z m 664.36,102.88 c -38.12,-11.02 -100.71,-19.29 -133.77,-19.29 -81.75,0 -117.79,20.2 -106.12,120.32 l 302.2,0 c 36.78,226.87 -21.16,277.39 -169.04,277.39 -135.94,0 -224.96,-57.87 -248.52,-245.24 -24.13,-191.97 60.56,-248.92 195.58,-248.92 47.75,0 117.91,10.11 166.72,25.72 l -7.05,90.02 z m -111.62,288.41 c 65.22,0 86.9,-17.46 80.19,-100.12 l -196.56,0 c 17.05,77.15 44.73,100.12 116.37,100.12 z m 626.11,-91.86 c 17.55,139.62 -40.51,181.87 -179.21,181.87 -67.05,0 -139.27,-11.94 -189.57,-24.8 l 9.35,-93.69 c 40.3,13.78 92.9,22.96 144.34,22.96 97.36,0 114.11,-20.2 103.82,-101.95 -38.45,8.27 -74.62,12.86 -114.11,12.86 -109.3,0 -186.36,-21.12 -202.99,-153.39 -15.36,-122.16 29.96,-156.15 177.85,-156.15 65.21,0 154.2,13.78 215.87,36.74 l 34.65,275.55 z m -135.63,-209.41 c -27.8,-9.18 -62.59,-15.62 -95.66,-15.62 -68.88,0 -85.07,10.11 -77.09,73.48 7.5,59.71 31.39,67.05 95.68,67.05 33.98,0 66.7,-2.75 91.73,-8.27 l -14.66,-116.64 z m 329.92,277.39 c 23.77,6.42 54.66,11.01 79.46,11.01 75.32,0 90.45,-25.72 77.4,-129.5 l -31.29,-248.92 113.89,0 32.79,260.86 c 5.32,42.25 5.11,77.15 0.31,104.71 31.47,9.18 69.59,12.85 92.55,12.85 75.32,0 90.46,-25.72 77.4,-129.5 l -31.29,-248.92 113.89,0 32.79,260.86 c 21.14,168.09 -24.63,220.44 -155.97,220.44 -53.28,0 -117.35,-12.86 -170.18,-31.23 -24.9,21.13 -63.12,31.23 -115.48,31.23 -74.4,0 -161.21,-18.37 -220.92,-40.42 l -55.44,-440.88 113.89,0 46.2,367.41 z m 989.5,88.17 c -44.88,15.62 -105.15,25.72 -153.83,25.72 -118.49,0 -204.5,-33.98 -219.75,-155.23 -12.12,-96.44 39.4,-124.91 141.23,-133.18 80.83,-7.35 97.24,-22.96 93.08,-56.03 -6.13,-48.68 -36.56,-56.95 -99.01,-56.95 -46.85,0 -103.44,10.11 -135.92,22.04 l -35.2,-90.01 c 42.12,-15.61 114.45,-24.8 164.04,-24.8 119.41,0 204.63,34.91 219.87,156.15 11.78,93.68 -33.43,128.59 -144.91,140.53 -75.3,7.35 -94.13,18.37 -90.09,50.52 6.13,48.68 35.29,54.19 91.32,54.19 46.84,0 97.93,-10.11 133.17,-22.05 l 36,89.1" />
    </g>
  </g>
</svg>
